<svg xmlns="http://www.w3.org/2000/svg" viewBox="0 0 245.36 41.5"><title>deris-ip-prosecution_2</title><g id="Layer_2" data-name="Layer 2"><g id="Layer_1-2" data-name="Layer 1"><rect x="7" y="6.29" width="2.57" height="27.7" style="fill:#4f5457"/><path d="M18.85,19.45h7a11.55,11.55,0,0,0,5-.78A4.83,4.83,0,0,0,33.7,14a4.77,4.77,0,0,0-2.85-4.64c-1.14-.53-2.32-.78-5-.78h-7Zm0,2.28V34h-2.6V6.29H26.43c2.32,0,4.64.16,6.64,1.43a7.46,7.46,0,0,1,0,12.58c-2,1.27-4.32,1.43-6.64,1.43Z" style="fill:#4f5457"/><path d="M49,19.45h7a11.55,11.55,0,0,0,5-.78A4.83,4.83,0,0,0,63.86,14,4.77,4.77,0,0,0,61,9.35c-1.14-.53-2.32-.78-5-.78H49Zm0,2.28V34H46.4V6.29H56.61c2.32,0,4.64.16,6.64,1.43a7.46,7.46,0,0,1,0,12.58c-2,1.27-4.32,1.43-6.64,1.43Z" style="fill:#4f5457"/><path d="M79.58,16.66a7.67,7.67,0,0,0-1.34-.12c-3.38,0-5.83,2.6-5.83,6.51v11H70V14.6h2.4v3.75a6.12,6.12,0,0,1,5.87-4.24,7.15,7.15,0,0,1,1.3.12Z" style="fill:#4f5457"/><path d="M89.24,32.4c3.74,0,6.27-3,6.27-8.06s-2.44-8.17-6.27-8.17S83,19.29,83,24.34s2.53,8.06,6.28,8.06m0-18.25c5.45,0,8.79,4.08,8.79,10.23s-3.29,10.1-8.79,10.1-8.8-4-8.8-10.1,3.29-10.21,8.75-10.21" style="fill:#4f5457"/><path d="M113.72,18.88a6.36,6.36,0,0,0-5.26-2.71c-2.36,0-4.27,1-4.27,3.14s1.3,2.77,3.87,3.34l2.56.61c3.26.73,5.79,1.91,5.79,5.37,0,3.79-3.18,5.79-7.54,5.83a9.3,9.3,0,0,1-8-4l2-1.39a7.16,7.16,0,0,0,6.32,3.34c3.25,0,4.8-1.51,4.8-3.58s-1.75-2.77-4.07-3.34l-2.69-.65c-3.42-.82-5.46-2-5.46-5.22,0-3.5,3.06-5.46,6.76-5.46a8.87,8.87,0,0,1,7,3.18Z" style="fill:#4f5457"/><path d="M122.23,22.58h12.06c0-3.13-2.12-6.43-5.87-6.43-3.54,0-5.86,2.52-6.19,6.43m14.83,6.64a9,9,0,0,1-8.43,5.26c-5.46,0-9-3.71-9-10.31,0-5.9,3.54-10,8.75-10,5.63,0,8.48,4.32,8.48,10.06v.33H122.15v.28c0,5.06,2.93,7.54,6.56,7.54a7,7,0,0,0,6.52-4.32Z" style="fill:#4f5457"/><path d="M155.06,20.43c-1-2.73-2.72-4.24-5.45-4.24-3.83,0-6.28,3.1-6.28,8.15s2.53,8.06,6.28,8.06c2.68,0,4.4-1.22,5.62-3.7l1.91,1.18a7.88,7.88,0,0,1-7.53,4.6c-5.42,0-8.8-3.91-8.8-10.1s3.46-10.21,8.8-10.21a7.52,7.52,0,0,1,7.53,5Z" style="fill:#4f5457"/><path d="M161.26,14.6h2.4V25.66c0,2.44.28,4.2,1.22,5.3a4.36,4.36,0,0,0,3.46,1.26c4,0,5.5-3.26,5.5-6.11V14.6h2.41V34H173.8V30.81c-.73,1.88-2.77,3.67-6.07,3.67a6.21,6.21,0,0,1-4.8-1.88c-1.1-1.22-1.71-2.89-1.71-5.86Z" style="fill:#4f5457"/><path d="M179.63,14.6h3.91V7.35l2.4-.53V14.6h4.65v1.87h-4.65V29.59a3.61,3.61,0,0,0,.37,2.12,1.73,1.73,0,0,0,1.51.53,6.36,6.36,0,0,0,2.77-.65v2.16a8.49,8.49,0,0,1-3.51.65,3.49,3.49,0,0,1-2.77-.94,4.38,4.38,0,0,1-.77-3v-14h-3.91Z" style="fill:#4f5457"/><path d="M196.86,34h-2.4V14.6h2.4Zm0-23.71h-2.4v-4h2.4Z" style="fill:#4f5457"/><path d="M210.63,32.4c3.75,0,6.27-3,6.27-8.06s-2.44-8.17-6.27-8.17-6.28,3.1-6.28,8.15,2.53,8.06,6.28,8.06m0-18.25c5.46,0,8.8,4.08,8.8,10.23s-3.3,10.1-8.8,10.1-8.8-4-8.8-10.1,3.34-10.19,8.8-10.19" style="fill:#4f5457"/><path d="M239.47,34h-2.41V23.56c0-3-.2-4.84-1.22-5.94a4.42,4.42,0,0,0-3.46-1.27,5.1,5.1,0,0,0-3.95,1.59,6.47,6.47,0,0,0-1.63,4.52V34h-2.4V14.6h2.4v3.22c.73-1.88,2.85-3.67,6.15-3.67A6.21,6.21,0,0,1,237.76,16c1.22,1.38,1.71,2.69,1.71,7Z" style="fill:#4f5457"/><rect width="245.36" height="41.5" style="fill:none"/></g></g></svg>