<svg xmlns="http://www.w3.org/2000/svg" viewBox="0 0 245.36 41.5"><title>deris-legal</title><g id="Layer_2" data-name="Layer 2"><g id="Layer_1-2" data-name="Layer 1"><polygon points="90.94 31.71 73.11 31.71 73.11 4.01 75.67 4.01 75.67 29.43 90.94 29.43 90.94 31.71" style="fill:#4f5457"/><path d="M95.55,20.3h12.06c0-3.13-2.12-6.43-5.86-6.43-3.55,0-5.87,2.52-6.2,6.43m14.83,6.64A9,9,0,0,1,102,32.2c-5.46,0-9-3.71-9-10.31,0-5.91,3.54-10,8.76-10,5.62,0,8.47,4.32,8.47,10.06v.33H95.47v.23c0,5,2.93,7.54,6.56,7.54a7,7,0,0,0,6.52-4.32Z" style="fill:#4f5457"/><path d="M122.76,14c-3.74,0-6.11,2.77-6.11,7.9s2.2,7.9,6,7.9,6-2.81,6-7.86-2.32-7.94-6-7.94m8.28,17c0,6.07-2.61,8.84-8.36,8.84-5.5,0-7.61-2.77-7.82-6.39l2.32-.65c.25,2.81,1.55,5,5.5,5,5.3,0,6-3.47,6-7.66v-2a6.54,6.54,0,0,1-6.35,3.8c-4.93,0-8.15-3.71-8.15-10s3.38-10,8.19-10a6.74,6.74,0,0,1,6.31,3.63V12.31h2.41Z" style="fill:#4f5457"/><path d="M148.55,21.28a11.67,11.67,0,0,1-2,.49l-3.21.61c-2.53.49-4.69,1-4.69,3.87,0,2.61,1.75,3.91,4.32,3.91a5.33,5.33,0,0,0,5.61-5v-.29Zm-11.93-3.34c-.09-3.83,3.09-6.07,7.33-6.07,4,0,6.88,1.22,6.88,6.11v9.65c0,1.59.12,2.53,1.55,2.53a3.44,3.44,0,0,0,1.47-.37v1.88a4.56,4.56,0,0,1-2.08.44c-1.88,0-3.22-1-3.14-3.13h0c-.69,1.51-2.73,3.22-6.15,3.22-4,0-6.35-2.24-6.35-5.91a4.8,4.8,0,0,1,1.34-3.67c1.14-1.1,3-1.71,5.34-2.11l4.8-.9c.7-.12,1-.2,1-1.06v-.61c0-2.69-1.26-4.07-4.72-4.07-3.26,0-5,1.71-5,4.6Z" style="fill:#4f5457"/><rect x="157.31" y="4.01" width="2.4" height="27.7" style="fill:#4f5457"/><rect width="245.36" height="41.5" style="fill:none"/></g></g></svg>