<?xml version="1.0" encoding="utf-8"?>
<!-- Generator: Adobe Illustrator 16.0.0, SVG Export Plug-In . SVG Version: 6.00 Build 0)  -->
<!DOCTYPE svg PUBLIC "-//W3C//DTD SVG 1.0//EN" "http://www.w3.org/TR/2001/REC-SVG-20010904/DTD/svg10.dtd">
<svg version="1.0" id="Layer_1" xmlns="http://www.w3.org/2000/svg" xmlns:xlink="http://www.w3.org/1999/xlink" x="0px" y="0px"
	 width="98.8px" height="140.6px" viewBox="0 0 98.8 140.6" enable-background="new 0 0 98.8 140.6" xml:space="preserve">
<g>
	<defs>
		<rect id="SVGID_1_" x="1.4" y="2.4" width="95.9" height="135.9"/>
	</defs>
	<clipPath id="SVGID_2_">
		<use xlink:href="#SVGID_1_"  overflow="visible"/>
	</clipPath>
	<path clip-path="url(#SVGID_2_)" fill="#555759" d="M1.7,112.8V101H6c1.1,0,2.2,0.1,3.2,0.5c1.8,0.9,2.7,3,2.7,5.4
		c0,2-0.7,3.7-1.8,4.7c-1.3,1.2-2.7,1.2-4.9,1.2H1.7z M4.3,110.4h1.2c1.2,0,2.2,0,2.8-0.6c0.5-0.5,0.9-1.5,0.9-2.8
		c0-1.3-0.4-2.3-1.1-2.8c-0.6-0.5-1.4-0.6-2.8-0.6h-1V110.4z"/>
	<polygon clip-path="url(#SVGID_2_)" fill="#555759" points="28.1,103.3 28.1,105.6 33.3,105.6 33.3,107.9 28.1,107.9 28.1,110.5 
		34.2,110.5 34.2,112.8 25.5,112.8 25.5,101 33.8,101 33.8,103.3 	"/>
	<path clip-path="url(#SVGID_2_)" fill="#555759" d="M50.5,108.5v4.4h-2.6V101h4.4c1.3,0,2.2,0.1,2.8,0.4c1.4,0.6,2.3,1.7,2.3,3.4
		c0,1.8-1,3-2.5,3.4l3,4.7h-3l-2.7-4.4H50.5z M50.5,106.2h2.1c0.7,0,1.3,0,1.7-0.3c0.4-0.2,0.6-0.6,0.6-1.2c0-0.6-0.2-0.9-0.6-1.2
		c-0.4-0.3-1-0.3-1.7-0.3h-2.1V106.2z"/>
	<rect x="71.1" y="101" clip-path="url(#SVGID_2_)" fill="#555759" width="2.6" height="11.9"/>
	<path clip-path="url(#SVGID_2_)" fill="#555759" d="M95.1,104.2c-0.8-0.8-1.9-1.3-3.1-1.3c-1.1,0-1.9,0.4-1.9,1.2s0.5,1.1,1.6,1.3
		l1.9,0.4c2.2,0.4,3.6,1.3,3.6,3.4c0,2.5-2.2,3.8-5,3.8c-2.7,0-4.6-1.5-5.4-2.5l1.8-1.6c0.7,1,2,1.9,3.6,1.9c1.4,0,2.2-0.5,2.2-1.4
		c0-0.8-0.7-1.1-1.8-1.2l-1.5-0.3c-2.2-0.4-3.8-1.2-3.8-3.5c0-2.1,2-3.6,4.6-3.6c2.1,0,3.8,0.8,4.8,1.9L95.1,104.2z"/>
	<path clip-path="url(#SVGID_2_)" fill="#555759" d="M6,138H4.6v-8.2H1.4v-1.2h0.4c0.9,0,1.6-0.2,2-0.5c0.6-0.4,0.9-1.1,0.9-2H6V138
		z"/>
	<path clip-path="url(#SVGID_2_)" fill="#555759" d="M31.3,134.9c0.2,0.6,0.6,2.1,2.3,2.1c1.8,0,2.7-1.5,2.8-4.2
		c-0.6,0.7-1.6,1.3-3,1.3c-2.3,0-3.8-1.7-3.8-3.8c0-2.3,1.4-4.3,4-4.3c2.7,0,4.3,1.9,4.3,6.1c0,3.9-1.6,6.2-4.4,6.2
		c-2.5,0-3.4-1.8-3.6-3L31.3,134.9z M33.7,132.7c1.1,0,2.2-0.6,2.7-1.5c0-2.4-1-4-2.7-4c-1.5,0-2.5,1.1-2.5,2.9
		C31.2,131.8,32.3,132.7,33.7,132.7"/>
	<path clip-path="url(#SVGID_2_)" fill="#555759" d="M65.1,138h-1.5v-8.2h-3.1v-1.2h0.4c0.9,0,1.6-0.2,2-0.5c0.6-0.4,0.9-1.1,0.9-2
		h1.3V138z"/>
	<path clip-path="url(#SVGID_2_)" fill="#555759" d="M89.1,131.2c-0.1-0.2-0.3-0.9-0.3-1.6c0-1.9,1.4-3.6,3.9-3.6
		c2.7,0,3.9,1.8,3.9,3.9c0,2.7-2.1,4.6-4.1,6c-0.5,0.3-1,0.7-1.4,0.9h5.7v1.3h-7.8v-1.2c1-0.6,2.7-1.9,4-3.1c1.2-1,2.1-2.2,2.1-3.8
		c0-1.7-1-2.6-2.4-2.6c-1.6,0-2.3,1-2.3,2.3c0,0.6,0.1,1.2,0.4,1.7L89.1,131.2z"/>
	<polygon clip-path="url(#SVGID_2_)" fill="#555759" points="94.1,2.4 4.6,2.4 1.7,2.4 1.7,5.2 1.7,83.2 4.6,83.2 4.6,5.2 94.1,5.2 
		94.1,83.2 97,83.2 97,5.2 97,2.4 	"/>
	<path clip-path="url(#SVGID_2_)" fill="#555759" d="M86.9,65.1C83,68,77.8,70.2,71,70.2c-8.5,0-14.7-1.4-21.3-2.8
		c-6.5-1.4-13.2-2.9-22-2.9c-6.6,0-11.8,1.8-15.9,4.3v3.5c3.9-2.8,9.1-4.9,15.9-4.9c8.5,0,14.7,1.4,21.3,2.9
		c6.5,1.4,13.2,2.9,22,2.9c6.6,0,11.8-1.9,15.9-4.5V65.1z"/>
	<path clip-path="url(#SVGID_2_)" fill="#F7323F" d="M56.6,65.9V19.7h26v-2.9h-26h-2.9v2.9v45.6C54.6,65.5,55.6,65.7,56.6,65.9"/>
	<path clip-path="url(#SVGID_2_)" fill="#F7323F" d="M42.1,62.9c1,0.2,1.9,0.4,2.9,0.5V19.7v-2.9h-2.9h-26v2.9h26V62.9z"/>
	<path clip-path="url(#SVGID_2_)" fill="#F7323F" d="M42.1,71.7v11.5H45v-11C44.1,72.1,43.1,71.9,42.1,71.7"/>
	<path clip-path="url(#SVGID_2_)" fill="#F7323F" d="M53.7,74.1v9.1h2.9v-8.5C55.6,74.5,54.6,74.3,53.7,74.1"/>
</g>
</svg>
