<svg xmlns="http://www.w3.org/2000/svg" viewBox="0 0 141.8 52.61"><title>logo</title><g id="Layer_2" data-name="Layer 2"><g id="Layer_1-2" data-name="Layer 1"><polygon points="126.7 0 126.7 0 115.9 0 115.9 4.3 122.4 4.3 122.4 10.8 126.7 10.8 126.7 0" style="fill:#ed1c24"/><polygon points="131 0 131 0 141.8 0 141.8 4.3 135.4 4.3 135.4 10.8 131 10.8 131 0" style="fill:#ed1c24"/><path d="M5.8,31.4H8.4c2.6,0,4.7,0,6-1.3a8.93,8.93,0,0,0,2.1-6.2,8.16,8.16,0,0,0-2.3-6.2C12.9,16.6,11,16.4,8,16.4H5.8ZM.1,36.7V10.8H9.6A14.71,14.71,0,0,1,16.5,12c4,1.9,5.9,6.6,5.9,11.7,0,4.5-1.4,8-3.8,10.3-2.7,2.7-5.9,2.7-10.7,2.7Z" style="fill:#54595b"/><polygon points="34.7 15.9 34.7 21 46 21 46 26 34.7 26 34.7 31.6 48.1 31.6 48.1 36.7 29 36.7 29 10.8 47.2 10.8 47.2 15.9 34.7 15.9" style="fill:#54595b"/><path d="M60.6,22.3h4.5a6.94,6.94,0,0,0,3.7-.7A2.66,2.66,0,0,0,70,19.1a2.9,2.9,0,0,0-1.2-2.5,6.94,6.94,0,0,0-3.7-.7H60.6Zm0,4.9v9.5H54.9V10.8h9.7a18.3,18.3,0,0,1,6.2.8,7.48,7.48,0,0,1,5,7.4c0,4-2.1,6.5-5.5,7.4l6.5,10.3H70.3l-5.8-9.5Z" style="fill:#54595b"/><rect x="82.7" y="10.8" width="5.7" height="25.9" style="fill:#54595b"/><path d="M112.3,18a9.69,9.69,0,0,0-6.7-2.8c-2.4,0-4.1,1-4.1,2.6s1.2,2.4,3.5,2.8l4.2.8c4.8,1,7.8,2.9,7.8,7.4,0,5.4-4.8,8.3-10.9,8.3a14.75,14.75,0,0,1-11.7-5.4l4-3.4a9.86,9.86,0,0,0,7.8,4c3,0,4.8-1.2,4.8-3.1s-1.5-2.3-3.9-2.7l-3.4-.6c-4.7-.9-8.3-2.6-8.3-7.7,0-4.6,4.3-7.9,10-7.9a13.85,13.85,0,0,1,10.4,4.1Z" style="fill:#54595b"/><path d="M4.22,51H1.15L.53,52.54,0,52.48l2.4-6H3l2.39,6-.55.06Zm-2.91-.45H4.07L2.69,47.05Z" style="fill:#606161"/><path d="M7.57,48.23h.85l0-1.15L8.93,47v1.21h1.3l0,.46H8.93V51a1.36,1.36,0,0,0,.19.82.71.71,0,0,0,.61.25,2,2,0,0,0,.55-.09l.05.46a2.26,2.26,0,0,1-.69.11,1.17,1.17,0,0,1-.91-.36,1.65,1.65,0,0,1-.32-1.09V48.69H7.53Z" style="fill:#606161"/><path d="M11.81,49.51h0a1.9,1.9,0,0,1,.56-1,1.45,1.45,0,0,1,1-.38h.18l-.05.47h-.15a1.31,1.31,0,0,0-1.11.6,2.5,2.5,0,0,0-.43,1.53v1.74h-.52V48.27l.48-.05Z" style="fill:#606161"/><path d="M18.11,52.52h-.47l0-1.14h0a1.63,1.63,0,0,1-1.66,1.23,1.44,1.44,0,0,1-1.15-.47,2,2,0,0,1-.39-1.32V48.26l.52,0v2.55a1.56,1.56,0,0,0,.3,1,1.14,1.14,0,0,0,.87.34,1.35,1.35,0,0,0,1.09-.54,2.29,2.29,0,0,0,.43-1.46V48.23h.52Z" style="fill:#606161"/><path d="M19.48,51.91a2.86,2.86,0,0,0,1.19.27,1.16,1.16,0,0,0,.75-.22.73.73,0,0,0,.26-.57.59.59,0,0,0-.07-.31.69.69,0,0,0-.24-.24l-.29-.16-.39-.15-.46-.19a2.67,2.67,0,0,1-.39-.22.92.92,0,0,1-.32-.33.87.87,0,0,1-.1-.42,1,1,0,0,1,.44-.88,1.67,1.67,0,0,1,1.07-.34,2.92,2.92,0,0,1,1.16.22L22,48.8a2.39,2.39,0,0,0-1.06-.22,1.2,1.2,0,0,0-.7.2.64.64,0,0,0-.28.55.56.56,0,0,0,.16.37,1,1,0,0,0,.32.24,3.11,3.11,0,0,0,.46.17l.1,0,.46.18a2.57,2.57,0,0,1,.38.23.83.83,0,0,1,.29.33,1.2,1.2,0,0,1-.32,1.36,1.71,1.71,0,0,1-1.12.35,3.39,3.39,0,0,1-1.29-.27Z" style="fill:#606161"/><path d="M22.81,48.23h.85l0-1.15.47-.06v1.21h1.31l-.05.46H24.17V51a1.43,1.43,0,0,0,.19.82.71.71,0,0,0,.61.25,2,2,0,0,0,.56-.09l0,.46a2.15,2.15,0,0,1-.68.11,1.15,1.15,0,0,1-.91-.36,1.59,1.59,0,0,1-.32-1.09V48.69h-.89Z" style="fill:#606161"/><path d="M29.94,52.21a3.29,3.29,0,0,1-1.54.39,2.09,2.09,0,0,1-1.52-.6,2.18,2.18,0,0,1-.59-1.57,2.36,2.36,0,0,1,.59-1.62,1.91,1.91,0,0,1,1.5-.66,1.56,1.56,0,0,1,1.24.53A2,2,0,0,1,30.08,50c0,.05,0,.17,0,.35l-3.24,0a1.81,1.81,0,0,0,.46,1.24,1.47,1.47,0,0,0,1.15.48,3,3,0,0,0,1.4-.37Zm-1.6-3.63a1.35,1.35,0,0,0-1.05.46,1.66,1.66,0,0,0-.47,1l2.76,0A1.67,1.67,0,0,0,29.26,49a1.12,1.12,0,0,0-.91-.39Z" style="fill:#606161"/><path d="M34.52,52.51v-1h0a1.62,1.62,0,0,1-1.59,1.08A1.72,1.72,0,0,1,31.55,52,2.21,2.21,0,0,1,31,50.51a2.3,2.3,0,0,1,.64-1.72,2.18,2.18,0,0,1,1.63-.64,2.42,2.42,0,0,1,1.18.27V46.08L35,46v6.48ZM33,52.15a1.3,1.3,0,0,0,1.07-.51,2,2,0,0,0,.41-1.27V48.9a2.28,2.28,0,0,0-1.22-.31,1.63,1.63,0,0,0-1.21.5,1.89,1.89,0,0,0-.49,1.37,1.83,1.83,0,0,0,.39,1.21,1.28,1.28,0,0,0,1.05.48Z" style="fill:#606161"/><path d="M38.61,46.51h.53v6h-.53Z" style="fill:#606161"/><path d="M40.85,46.52c.46,0,1,0,1.61,0a2.45,2.45,0,0,1,1.61.47,1.67,1.67,0,0,1,.58,1.38,1.8,1.8,0,0,1-.59,1.42,2.37,2.37,0,0,1-1.64.52H41.37v2.26h-.53Zm1.59,3.29a1.85,1.85,0,0,0,1.25-.37,1.34,1.34,0,0,0,.43-1.09c0-.93-.55-1.4-1.66-1.41H41.37v2.86Z" style="fill:#606161"/><path d="M51.35,52.51h-.48l0-1h0a1.62,1.62,0,0,1-1.58,1.08A1.75,1.75,0,0,1,47.9,52a2.17,2.17,0,0,1-.52-1.53A2.31,2.31,0,0,1,48,48.79a2.21,2.21,0,0,1,1.64-.64,4.11,4.11,0,0,1,1.69.4Zm-.94-.86a1.93,1.93,0,0,0,.41-1.28V48.88a2.84,2.84,0,0,0-1.21-.28,1.61,1.61,0,0,0-1.23.51,1.87,1.87,0,0,0-.49,1.35,1.81,1.81,0,0,0,.41,1.23,1.29,1.29,0,0,0,1,.46A1.34,1.34,0,0,0,50.41,51.65Z" style="fill:#606161"/><path d="M56.07,52.51l0-1h0a1.63,1.63,0,0,1-1.6,1.08A1.7,1.7,0,0,1,53.1,52a2.21,2.21,0,0,1-.52-1.51,2.34,2.34,0,0,1,.64-1.72,2.21,2.21,0,0,1,1.64-.64,2.38,2.38,0,0,1,1.17.27V46.08l.53,0v6.48Zm-1.54-.36a1.31,1.31,0,0,0,1.08-.51A2,2,0,0,0,56,50.37V48.9a2.31,2.31,0,0,0-1.22-.31,1.65,1.65,0,0,0-1.22.5,1.93,1.93,0,0,0-.49,1.37,1.84,1.84,0,0,0,.4,1.21,1.28,1.28,0,0,0,1,.48Z" style="fill:#606161"/><path d="M61.19,48.19l.51.05-1.78,4.27h-.58l-1.82-4.27.53-.05L59.63,52Z" style="fill:#606161"/><path d="M62.54,46.7a.4.4,0,0,1,.12-.29.45.45,0,0,1,.28-.11.37.37,0,0,1,.28.1.33.33,0,0,1,.11.27.44.44,0,0,1-.11.29.4.4,0,0,1-.29.12.38.38,0,0,1-.28-.11.37.37,0,0,1-.11-.27Zm.66,5.81h-.52V48.27l.52-.05Z" style="fill:#606161"/><path d="M64.56,51.91a2.87,2.87,0,0,0,1.2.27A1.15,1.15,0,0,0,66.5,52a.73.73,0,0,0,.26-.57.59.59,0,0,0-.07-.31.69.69,0,0,0-.24-.24l-.29-.16-.38-.15a4.68,4.68,0,0,1-.46-.19,2.3,2.3,0,0,1-.4-.22.92.92,0,0,1-.32-.33.87.87,0,0,1-.1-.42,1.06,1.06,0,0,1,.44-.88A1.69,1.69,0,0,1,66,48.15a2.89,2.89,0,0,1,1.16.22L67,48.8A2.39,2.39,0,0,0,66,48.58a1.2,1.2,0,0,0-.7.2.63.63,0,0,0-.27.55.55.55,0,0,0,.15.37,1,1,0,0,0,.32.24,3.61,3.61,0,0,0,.46.17l.11,0,.46.18a2.49,2.49,0,0,1,.37.23.83.83,0,0,1,.29.33,1.11,1.11,0,0,1,.09.46,1.08,1.08,0,0,1-.41.9,1.7,1.7,0,0,1-1.11.35,3.4,3.4,0,0,1-1.3-.27Z" style="fill:#606161"/><path d="M68.78,48.8a2,2,0,0,1,1.53-.65,1.92,1.92,0,0,1,1.49.63,2.24,2.24,0,0,1,.57,1.56A2.27,2.27,0,0,1,71.78,52a2,2,0,0,1-1.54.65A1.91,1.91,0,0,1,68.76,52a2.17,2.17,0,0,1-.58-1.56A2.28,2.28,0,0,1,68.78,48.8Zm3.06,1.58a1.94,1.94,0,0,0-.43-1.26,1.53,1.53,0,0,0-2.29,0,2,2,0,0,0-.43,1.27,1.89,1.89,0,0,0,.44,1.27,1.44,1.44,0,0,0,1.16.5,1.4,1.4,0,0,0,1.14-.51,1.92,1.92,0,0,0,.42-1.26Z" style="fill:#606161"/><path d="M74.1,49.51h0a1.9,1.9,0,0,1,.56-1,1.45,1.45,0,0,1,1-.38h.18l0,.47h-.16a1.29,1.29,0,0,0-1.1.6,2.5,2.5,0,0,0-.43,1.53v1.74h-.53V48.27l.49-.05Z" style="fill:#606161"/><path d="M78.4,51.91a2.86,2.86,0,0,0,1.19.27,1.16,1.16,0,0,0,.75-.22.73.73,0,0,0,.26-.57.59.59,0,0,0-.07-.31.69.69,0,0,0-.24-.24L80,50.68l-.38-.15-.47-.19a2.67,2.67,0,0,1-.39-.22.92.92,0,0,1-.32-.33.87.87,0,0,1-.1-.42,1.06,1.06,0,0,1,.44-.88,1.69,1.69,0,0,1,1.07-.34,2.92,2.92,0,0,1,1.16.22l-.13.43a2.39,2.39,0,0,0-1.06-.22,1.2,1.2,0,0,0-.7.2.63.63,0,0,0-.27.55.55.55,0,0,0,.15.37,1,1,0,0,0,.32.24,3.61,3.61,0,0,0,.46.17l.1,0,.47.18a2.49,2.49,0,0,1,.37.23.83.83,0,0,1,.29.33,1.11,1.11,0,0,1,.09.46,1.08,1.08,0,0,1-.41.9,1.7,1.7,0,0,1-1.11.35,3.4,3.4,0,0,1-1.3-.27Z" style="fill:#606161"/><path d="M82.15,46.7a.4.4,0,0,1,.12-.29.43.43,0,0,1,.28-.11.37.37,0,0,1,.28.1.33.33,0,0,1,.11.27.4.4,0,0,1-.12.29.38.38,0,0,1-.29.12.38.38,0,0,1-.38-.38Zm.66,5.81h-.52V48.27l.52-.05Z" style="fill:#606161"/><path d="M84.32,48.27l.49-.05v1.17h0a1.62,1.62,0,0,1,1.65-1.24,1.42,1.42,0,0,1,1.15.46A2,2,0,0,1,88,49.93v2.58h-.52V50a1.56,1.56,0,0,0-.3-1,1.08,1.08,0,0,0-.85-.35,1.34,1.34,0,0,0-1.09.54,2.25,2.25,0,0,0-.44,1.46v1.92h-.52Z" style="fill:#606161"/><path d="M92.61,52.28a2.42,2.42,0,0,1-1.29.32,2,2,0,0,1-1.5-.62,2.13,2.13,0,0,1-.6-1.55,2.29,2.29,0,0,1,.62-1.64,2.07,2.07,0,0,1,1.58-.64,2.76,2.76,0,0,1,1.15.24l-.12.44a2.32,2.32,0,0,0-1-.24,1.56,1.56,0,0,0-1.21.51,1.83,1.83,0,0,0-.46,1.28,1.8,1.8,0,0,0,.46,1.26,1.52,1.52,0,0,0,1.17.51,2.17,2.17,0,0,0,1.13-.32Z" style="fill:#606161"/><path d="M97,52.21a3.29,3.29,0,0,1-1.54.39A2.09,2.09,0,0,1,93.9,52a2.18,2.18,0,0,1-.59-1.57,2.36,2.36,0,0,1,.59-1.62,1.91,1.91,0,0,1,1.5-.66,1.56,1.56,0,0,1,1.24.53A2,2,0,0,1,97.1,50c0,.05,0,.17,0,.35l-3.24,0a1.86,1.86,0,0,0,.46,1.24,1.49,1.49,0,0,0,1.15.48,3,3,0,0,0,1.4-.37Zm-1.59-3.63a1.36,1.36,0,0,0-1.06.46,1.59,1.59,0,0,0-.46,1l2.75,0A1.62,1.62,0,0,0,96.28,49a1.12,1.12,0,0,0-.91-.39Z" style="fill:#606161"/><path d="M101.94,52.51h-.52V47.25l-1.33,1-.2-.42,1.59-1.14.46.05Z" style="fill:#606161"/><path d="M104.08,52.4a5.14,5.14,0,0,0,2.58-2.71,1.58,1.58,0,0,1-1.4.71,1.86,1.86,0,0,1-1.3-.5,1.72,1.72,0,0,1-.57-1.35,1.87,1.87,0,0,1,.59-1.42,2.05,2.05,0,0,1,1.45-.54,1.87,1.87,0,0,1,1.92,2,4,4,0,0,1-.78,2.32,5.41,5.41,0,0,1-2,1.73Zm-.18-3.87a1.36,1.36,0,0,0,.42,1,1.58,1.58,0,0,0,2.08,0,1.44,1.44,0,0,0,.41-1.07,1.4,1.4,0,0,0-.41-1.07,1.54,1.54,0,0,0-2.06,0,1.4,1.4,0,0,0-.43,1.08Z" style="fill:#606161"/><path d="M110.19,52.51h-.52V47.25l-1.32,1-.21-.42,1.59-1.14.46.05Z" style="fill:#606161"/><path d="M111.64,52.07c1.32-1.3,2.16-2.17,2.54-2.61a1.94,1.94,0,0,0,.55-1.19,1.13,1.13,0,0,0-.37-.88,1.39,1.39,0,0,0-1-.34,2.58,2.58,0,0,0-1.55.58l-.2-.39a3,3,0,0,1,1.8-.65,1.92,1.92,0,0,1,1.32.47,1.5,1.5,0,0,1,.52,1.2,2.17,2.17,0,0,1-.55,1.34c-.37.45-1.18,1.27-2.43,2.47h3.12v.44H111.7Z" style="fill:#606161"/></g></g></svg>